#!OML:ASF H:\ManfredETheater\Project 1\Capture day 1\Session 1\subject.ASF
:FULLY-SPECIFIED
:DEGREES
182
root 0.845609 17.9227 -14.4231 -173.746 -6.78836 -180.532
lowerback 3.60664 -0.302416 -3.35546
upperback -3.3204 -0.604836 1.38321
thorax -5.4251 -0.165993 3.37554
lowerneck -14.2555 -2.93425 -3.81049
upperneck 9.91372 -3.73345 4.01253
head 5.46513 -1.68469 1.54841
rclavicle -3.11222e-015 -3.18055e-015
rhumerus -36.6391 -2.16812 -87.7569
rradius 47.6114
rwrist -1.22643
rhand -22.8001 -2.2473
rfingers 7.12502
rthumb 3.63618 -32.196
lclavicle -3.11222e-015 -3.18055e-015
lhumerus -41.1551 18.1468 76.2059
lradius 23.8223
lwrist -19.7095
lhand -16.5688 8.47021
lfingers 7.12502
lthumb 9.65135 38.2291
rfemur -18.1451 1.90037 22.8583
rtibia 33.4684
rfoot -14.7902 -16.2626
rtoes -7.6909
lfemur -21.8925 -5.47825 -22.3147
ltibia 39.3192
lfoot -19.4671 -5.66532
ltoes 9.07215
183
root 0.837979 17.9192 -14.4642 -173.692 -6.6986 -180.587
lowerback 3.55919 -0.296549 -3.40038
upperback -3.33362 -0.599735 1.37345
thorax -5.4122 -0.162392 3.3898
lowerneck -14.3447 -2.90329 -3.78649
upperneck 9.92478 -3.69565 4.02585
head 5.48165 -1.66328 1.55123
rclavicle 5.87036e-015 -2.18663e-015
rhumerus -36.4911 -2.19552 -87.8195
rradius 46.6167
rwrist -1.19449
rhand -22.5159 -2.58812
rfingers 7.12502
rthumb 3.9106 -32.532
lclavicle 5.87036e-015 -2.18663e-015
lhumerus -41.2562 18.2773 76.0108
lradius 23.6355
lwrist -19.7884
lhand -16.0314 8.97359
lfingers 7.12502
lthumb 10.1699 38.7078
rfemur -18.0253 1.89288 22.7875
rtibia 33.4536
rfoot -15.0212 -16.2133
rtoes -7.69865
lfemur -21.7531 -5.38866 -22.4023
ltibia 39.2758
lfoot -19.6193 -5.67596
ltoes 9.13836
184
root 0.830869 17.9155 -14.5043 -173.634 -6.61433 -180.642
lowerback 3.51858 -0.288642 -3.45176
upperback -3.34796 -0.592372 1.3662
thorax -5.40457 -0.157232 3.41026
lowerneck -14.4459 -2.87224 -3.76457
upperneck 9.94161 -3.65858 4.04882
head 5.50225 -1.64147 1.55726
rclavicle 7.98866e-015 -1.31198e-014
rhumerus -36.3509 -2.17552 -87.876
rradius 45.6383
rwrist -1.10061
rhand -22.2415 -2.87653
rfingers 7.12502
rthumb 4.17554 -32.8154
lclavicle 7.98866e-015 -1.31198e-014
lhumerus -41.3209 18.2379 75.9452
lradius 23.5213
lwrist -19.7419
lhand -15.4758 9.38769
lfingers 7.12502
lthumb 10.7059 39.0949
rfemur -17.9142 1.88398 22.7178
rtibia 33.4391
rfoot -15.2455 -16.1687
rtoes -7.70961
lfemur -21.6231 -5.29115 -22.4855
ltibia 39.2331
lfoot -19.7724 -5.7067
ltoes 9.20082
185
root 0.82413 17.9118 -14.5435 -173.57 -6.53232 -180.69
lowerback 3.48001 -0.277801 -3.50024
upperback -3.3652 -0.580989 1.36196
thorax -5.40151 -0.150053 3.43199
lowerneck -14.5479 -2.84149 -3.73965
upperneck 9.95556 -3.62343 4.07804
head 5.52222 -1.62007 1.56464
rclavicle 1.10139e-014 -3.18055e-015
rhumerus -36.2203 -2.1127 -87.9268
rradius 44.6757
rwrist -0.937614
rhand -21.9956 -3.08728
rfingers 7.12502
rthumb 4.41305 -33.0213
lclavicle 1.10139e-014 -3.18055e-015
lhumerus -41.3492 18.0783 75.9766
lradius 23.4576
lwrist -19.6451
lhand -14.9115 9.68844
lfingers 7.12502
lthumb 11.2501 39.3668
rfemur -17.8164 1.87652 22.6555
rtibia 33.4265
rfoot -15.4569 -16.1274
rtoes -7.7278
lfemur -21.5076 -5.18271 -22.558
ltibia 39.194
lfoot -19.9238 -5.75527
ltoes 9.26564
186
root 0.817862 17.9081 -14.5815 -173.496 -6.44907 -180.734
lowerback 3.44232 -0.263283 -3.5479
upperback -3.3854 -0.564761 1.35912
thorax -5.40252 -0.140399 3.45441
lowerneck -14.6498 -2.81233 -3.71266
upperneck 9.96499 -3.59222 4.1164
head 5.54106 -1.59993 1.57425
rclavicle 6.67171e-015 -4.37326e-015
rhumerus -36.0957 -2.01932 -87.9729
rradius 43.7255
rwrist -0.696805
rhand -21.7768 -3.22524
rfingers 7.12502
rthumb 4.62429 -33.1548
lclavicle 6.67171e-015 -4.37326e-015
lhumerus -41.3464 17.8106 76.0931
lradius 23.4481
lwrist -19.5222
lhand -14.3433 9.87287
lfingers 7.12502
lthumb 11.798 39.5206
rfemur -17.739 1.88059 22.5988
rtibia 33.4191
rfoot -15.6512 -16.0949
rtoes -7.75297
lfemur -21.4116 -5.0635 -22.6217
ltibia 39.1597
lfoot -20.0684 -5.81754
ltoes 9.33879
187
root 0.8118 17.9047 -14.6186 -173.412 -6.36269 -180.773
lowerback 3.40378 -0.244834 -3.5924
upperback -3.41023 -0.543303 1.35712
thorax -5.40841 -0.128181 3.47558
lowerneck -14.7442 -2.78326 -3.68691
upperneck 9.96667 -3.56291 4.1676
head 5.55657 -1.58001 1.58806
rclavicle 1.48095e-014 4.37326e-015
rhumerus -35.9773 -1.90375 -88.0129
rradius 42.7809
rwrist -0.375688
rhand -21.5826 -3.3096
rfingers 7.12502
rthumb 4.81178 -33.235
lclavicle 1.48095e-014 4.37326e-015
lhumerus -41.3184 17.4797 76.265
lradius 23.4768
lwrist -19.4216
lhand -13.7837 9.93284
lfingers 7.12502
lthumb 12.3376 39.5488
rfemur -17.6827 1.88946 22.5462
rtibia 33.419
rfoot -15.827 -16.0644
rtoes -7.79598
lfemur -21.3342 -4.9355 -22.6795
ltibia 39.1306
lfoot -20.205 -5.88787
ltoes 9.42328
188
root 0.806013 17.9015 -14.6548 -173.318 -6.27505 -180.814
lowerback 3.36223 -0.223425 -3.63882
upperback -3.43893 -0.518219 1.35334
thorax -5.41703 -0.114089 3.49573
lowerneck -14.824 -2.75475 -3.66137
upperneck 9.95767 -3.53624 4.22989
head 5.56664 -1.56088 1.60535
rclavicle 6.4605e-016 -3.97569e-015
rhumerus -35.8668 -1.78006 -88.0443
rradius 41.8412
rwrist 0.0319259
rhand -21.4063 -3.3581
rfingers 7.12502
rthumb 4.98204 -33.2795
lclavicle 6.4605e-016 -3.97569e-015
lhumerus -41.2683 17.1082 76.4753
lradius 23.537
lwrist -19.3569
lhand -13.2521 9.87965
lfingers 7.12502
lthumb 12.8502 39.4641
rfemur -17.6474 1.90606 22.4915
rtibia 33.4295
rfoot -15.9874 -16.0401
rtoes -7.84135
lfemur -21.2732 -4.80477 -22.7383
ltibia 39.1055
lfoot -20.3327 -5.96187
ltoes 9.52226
189
root 0.800454 17.8985 -14.6903 -173.219 -6.18509 -180.856
lowerback 3.31897 -0.199382 -3.68662
upperback -3.46928 -0.489783 1.34867
thorax -5.42675 -0.0982859 3.51547
lowerneck -14.8913 -2.72544 -3.63466
upperneck 9.93707 -3.51001 4.29957
head 5.57114 -1.54166 1.62491
rclavicle 8.92046e-015 -1.70955e-014
rhumerus -35.76 -1.66608 -88.062
rradius 40.906
rwrist 0.536356
rhand -21.2202 -3.41826
rfingers 7.12502
rthumb 5.16172 -33.3354
lclavicle 8.92046e-015 -1.70955e-014
lhumerus -41.2039 16.7136 76.7128
lradius 23.6315
lwrist -19.3232
lhand -12.7622 9.73044
lfingers 7.12502
lthumb 13.3224 39.2846
rfemur -17.6289 1.92784 22.436
rtibia 33.4515
rfoot -16.1338 -16.0211
rtoes -7.89725
lfemur -21.223 -4.67641 -22.7981
ltibia 39.0832
lfoot -20.4516 -6.03218
ltoes 9.62439
190
root 0.795297 17.8956 -14.7248 -173.114 -6.09548 -180.903
lowerback 3.27635 -0.174262 -3.74192
upperback -3.50192 -0.460544 1.34266
thorax -5.43939 -0.0817448 3.53804
lowerneck -14.9404 -2.69481 -3.6048
upperneck 9.90135 -3.4835 4.37358
head 5.56789 -1.52225 1.64555
rclavicle 7.87063e-015 1.31198e-014
rhumerus -35.6564 -1.57374 -88.0623
rradius 39.9724
rwrist 1.13356
rhand -21.0277 -3.48917
rfingers 7.12502
rthumb 5.34762 -33.4017
lclavicle 7.87063e-015 1.31198e-014
lhumerus -41.1279 16.3192 76.9647
lradius 23.7555
lwrist -19.3131
lhand -12.3342 9.50028
lfingers 7.12502
lthumb 13.7349 39.027
rfemur -17.6266 1.95479 22.3762
rtibia 33.4847
rfoot -16.2679 -16.0112
rtoes -7.96799
lfemur -21.1846 -4.55661 -22.8629
ltibia 39.0632
lfoot -20.5614 -6.09394
ltoes 9.72429
191
root 0.790374 17.8929 -14.7588 -173.011 -6.00989 -180.956
lowerback 3.2343 -0.150008 -3.80309
upperback -3.5333 -0.432777 1.33548
thorax -5.45097 -0.0657272 3.56282
lowerneck -14.9716 -2.66208 -3.56786
upperneck 9.85237 -3.45539 4.44433
head 5.55724 -1.5024 1.66434
rclavicle 9.5106e-015 -8.34896e-015
rhumerus -35.5571 -1.50379 -88.0437
rradius 39.0459
rwrist 1.80574
rhand -20.8118 -3.60593
rfingers 7.12502
rthumb 5.55605 -33.5131
lclavicle 9.5106e-015 -8.34896e-015
lhumerus -41.0441 15.9263 77.2304
lradius 23.9131
lwrist -19.2947
lhand -11.98 9.23266
lfingers 7.12502
lthumb 14.0763 38.7359
rfemur -17.6301 1.97649 22.3111
rtibia 33.5265
rfoot -16.3958 -16.0044
rtoes -8.05792
lfemur -21.1481 -4.45178 -22.9345
ltibia 39.0452
lfoot -20.6657 -6.14231
ltoes 9.80972
192
root 0.785943 17.8902 -14.7918 -172.909 -5.9323 -181.012
lowerback 3.19693 -0.127602 -3.86908
upperback -3.56383 -0.407774 1.32943
thorax -5.46415 -0.0507898 3.59179
lowerneck -14.9874 -2.6266 -3.52438
upperneck 9.79471 -3.42456 4.51073
head 5.54103 -1.48161 1.68108
rclavicle 9.48576e-015 2.14687e-014
rhumerus -35.4633 -1.48132 -87.9979
rradius 38.127
rwrist 2.54281
rhand -20.5715 -3.75351
rfingers 7.12502
rthumb 5.78802 -33.6545
lclavicle 9.48576e-015 2.14687e-014
lhumerus -40.9567 15.5483 77.5043
lradius 24.1037
lwrist -19.2496
lhand -11.7014 8.95968
lfingers 7.12502
lthumb 14.3447 38.4441
rfemur -17.6375 1.99698 22.246
rtibia 33.5739
rfoot -16.5179 -16.0052
rtoes -8.16736
lfemur -21.1151 -4.36292 -23.0071
ltibia 39.0296
lfoot -20.7627 -6.17921
ltoes 9.87426
193
root 0.781916 17.8876 -14.8242 -172.813 -5.86798 -181.069
lowerback 3.1613 -0.109435 -3.93711
upperback -3.58916 -0.388168 1.32552
thorax -5.4724 -0.038475 3.62452
lowerneck -14.9943 -2.58884 -3.4729
upperneck 9.72815 -3.39083 4.5671
head 5.52011 -1.46006 1.6937
rclavicle 1.37286e-014 9.14409e-015
rhumerus -35.3753 -1.51376 -87.9202
rradius 37.2242
rwrist 3.32616
rhand -20.3087 -3.91944
rfingers 7.12502
rthumb 6.04177 -33.8133
lclavicle 1.37286e-014 9.14409e-015
lhumerus -40.8635 15.1799 77.7925
lradius 24.3327
lwrist -19.1427
lhand -11.5042 8.70888
lfingers 7.12502
lthumb 14.5348 38.1797
rfemur -17.6409 2.00296 22.1813
rtibia 33.6233
rfoot -16.6407 -16.0052
rtoes -8.29076
lfemur -21.0802 -4.28967 -23.08
ltibia 39.0158
lfoot -20.8542 -6.21047
ltoes 9.92561
